<?xml version="1.0" encoding="UTF-8" standalone="no"?>
<svg width="111px" height="78px" viewBox="0 0 111 78" version="1.1" xmlns="http://www.w3.org/2000/svg" xmlns:xlink="http://www.w3.org/1999/xlink" xmlns:sketch="http://www.bohemiancoding.com/sketch/ns">
    <!-- Generator: Sketch 3.3.3 (12081) - http://www.bohemiancoding.com/sketch -->
    <title>Group</title>
    <desc>Created with Sketch.</desc>
    <defs></defs>
    <g id="Home_non_signed_in" stroke="none" stroke-width="1" fill="none" fill-rule="evenodd" sketch:type="MSPage">
        <g id="BUILD.me---2A---What-is-BUILD" sketch:type="MSArtboardGroup" transform="translate(-1091.000000, -579.000000)">
            <g id="Prototype-+-Feedback-+-Coding" sketch:type="MSLayerGroup" transform="translate(300.000000, 506.000000)">
                <g id="Coding" transform="translate(693.766938, 0.000000)" sketch:type="MSShapeGroup">
                    <g id="Group" transform="translate(97.560976, 73.241099)">
                        <path d="M109.078591,8.13789985 L0.677506775,8.13789985 C0.303330115,8.13789985 0,8.44152168 0,8.81605818 L0,74.6707048 C0,76.128312 1.17683422,77.3100486 2.63055629,77.3100486 L107.125541,77.3100486 C108.579263,77.3100486 109.756098,76.128312 109.756098,74.6707048 L109.756098,8.81605818 C109.756098,8.44152168 109.452767,8.13789985 109.078591,8.13789985 L109.078591,8.13789985 Z" id="Shape" fill="#343742"></path>
                        <path d="M109.078591,9.4942165 L108.401084,8.81605818 L108.401084,74.6707048 C108.401084,75.3802076 107.829939,75.953732 107.125541,75.953732 L2.63055629,75.953732 C1.92615865,75.953732 1.35501355,75.3802076 1.35501355,74.6707048 L1.35501355,8.81605818 L0.677506775,9.4942165 L109.078591,9.4942165 L109.078591,9.4942165 Z" id="Path" fill="#F9F9F9"></path>
                        <path d="M109.078591,9.4942165 C109.452767,9.4942165 109.756098,9.19059467 109.756098,8.81605818 L109.756098,3.35729855 C109.756098,1.49214722 108.160535,0 106.213467,0 L3.54263042,0 C1.5955625,0 0,1.49214722 0,3.35729855 L0,8.81605818 C0,9.19059467 0.303330115,9.4942165 0.677506775,9.4942165 L109.078591,9.4942165 L109.078591,9.4942165 Z" id="Shape" fill="#343742"></path>
                        <path d="M109.078591,8.13789985 L0.677506775,8.13789985 L1.35501355,8.81605818 L1.35501355,3.35729855 C1.35501355,2.262599 2.32410704,1.35631664 3.54263042,1.35631664 L106.213467,1.35631664 C107.431991,1.35631664 108.401084,2.262599 108.401084,3.35729855 L108.401084,8.81605818 L109.078591,8.13789985 L109.078591,8.13789985 Z" id="Path" fill="#E1E0E1"></path>
                        <path d="M10.4806233,4.56719285 C10.4806233,5.59182225 9.65149051,6.42175241 8.62784553,6.42175241 C7.60420054,6.42175241 6.77506775,5.59182225 6.77506775,4.56719285 C6.77506775,3.54354677 7.60420054,2.71263328 8.62784553,2.71263328 C9.65149051,2.71263328 10.4806233,3.54354677 10.4806233,4.56719285" id="Fill-4" fill="#343743"></path>
                        <path d="M15.9006775,4.56719285 C15.9006775,5.59182225 15.0715447,6.42175241 14.0478997,6.42175241 C13.0242547,6.42175241 12.195122,5.59182225 12.195122,4.56719285 C12.195122,3.54354677 13.0242547,2.71263328 14.0478997,2.71263328 C15.0715447,2.71263328 15.9006775,3.54354677 15.9006775,4.56719285" id="Fill-5" fill="#343743"></path>
                        <path d="M21.3207317,4.56719285 C21.3207317,5.59182225 20.4915989,6.42175241 19.4679539,6.42175241 C18.4443089,6.42175241 17.6151762,5.59182225 17.6151762,4.56719285 C17.6151762,3.54354677 18.4443089,2.71263328 19.4679539,2.71263328 C20.4915989,2.71263328 21.3207317,3.54354677 21.3207317,4.56719285" id="Fill-6" fill="#343743"></path>
                        <path d="M97.8482722,66.4595155 L14.616862,66.4595155 C14.0275377,66.4595155 13.5501355,65.9906243 13.5501355,65.4118064 L13.5501355,21.3934316 C13.5501355,20.8146136 14.0275377,20.3447496 14.616862,20.3447496 L97.8482722,20.3447496 C98.4375965,20.3447496 98.9159892,20.8146136 98.9159892,21.3934316 L98.9159892,65.4118064 C98.9159892,65.9906243 98.4375965,66.4595155 97.8482722,66.4595155" id="Fill-7" fill="#343842"></path>
                        <path d="M50.1355014,50.1837158 C50.1355014,49.435029 50.7425474,48.8273991 51.4905149,48.8273991 C52.2384824,48.8273991 52.8455285,49.435029 52.8455285,50.1837158 C52.8455285,50.9324026 52.2384824,51.5400324 51.4905149,51.5400324 C50.7425474,51.5400324 50.1355014,50.9324026 50.1355014,50.1837158" id="Fill-9" fill="#2873E8"></path>
                        <path d="M37.9403794,50.1837158 C37.9403794,49.435029 38.5474255,48.8273991 39.295393,48.8273991 C40.0433604,48.8273991 40.6504065,49.435029 40.6504065,50.1837158 C40.6504065,50.9324026 40.0433604,51.5400324 39.295393,51.5400324 C38.5474255,51.5400324 37.9403794,50.9324026 37.9403794,50.1837158" id="Fill-10" fill="#2873E8"></path>
                        <path d="M33.8753388,50.1837158 C33.8753388,49.435029 34.4823848,48.8273991 35.2303523,48.8273991 C35.9783198,48.8273991 36.5853659,49.435029 36.5853659,50.1837158 C36.5853659,50.9324026 35.9783198,51.5400324 35.2303523,51.5400324 C34.4823848,51.5400324 33.8753388,50.9324026 33.8753388,50.1837158" id="Fill-11" fill="#2873E8"></path>
                        <path d="M29.8102981,50.1837158 C29.8102981,49.435029 30.4155375,48.8273991 31.1653117,48.8273991 C31.9132791,48.8273991 32.5203252,49.435029 32.5203252,50.1837158 C32.5203252,50.9324026 31.9132791,51.5400324 31.1653117,51.5400324 C30.4155375,51.5400324 29.8102981,50.9324026 29.8102981,50.1837158" id="Fill-12" fill="#2873E8"></path>
                        <path d="M50.7616066,28.4826495 L27.8291793,28.4826495 C27.4268219,28.4826495 27.100271,27.8750196 27.100271,27.1263328 C27.100271,26.3776461 27.4268219,25.7700162 27.8291793,25.7700162 L50.7616066,25.7700162 C51.1649359,25.7700162 51.4905149,26.3776461 51.4905149,27.1263328 C51.4905149,27.8750196 51.1649359,28.4826495 50.7616066,28.4826495" id="Fill-15" fill="#2873E8"></path>
                        <path d="M50.1355014,32.5515994 C50.1355014,33.3002862 49.5284553,33.9079161 48.7804878,33.9079161 C48.0307136,33.9079161 47.4254743,33.3002862 47.4254743,32.5515994 C47.4254743,31.8011042 48.0307136,31.1952828 48.7804878,31.1952828 C49.5284553,31.1952828 50.1355014,31.8011042 50.1355014,32.5515994" id="Fill-16" fill="#2873E8"></path>
                        <path d="M69.5876914,33.9079161 L55.0735552,33.9079161 C54.5904879,33.9079161 54.200542,33.3002862 54.200542,32.5515994 C54.200542,31.8011042 54.5904879,31.1952828 55.0735552,31.1952828 L69.5876914,31.1952828 C70.0707587,31.1952828 70.4607046,31.8011042 70.4607046,32.5515994 C70.4607046,33.3002862 70.0707587,33.9079161 69.5876914,33.9079161" id="Fill-17" fill="#2873E8"></path>
                        <path d="M27.9732218,31.1952828 L42.4874829,31.1952828 C42.9693517,31.1952828 43.3604336,31.8029126 43.3604336,32.5515994 C43.3604336,33.3020946 42.9693517,33.9079161 42.4874829,33.9079161 L27.9732218,33.9079161 C27.4913529,33.9079161 27.100271,33.3020946 27.100271,32.5515994 C27.100271,31.8029126 27.4913529,31.1952828 27.9732218,31.1952828" id="Fill-18" fill="#2873E8"></path>
                        <path d="M60.9756098,36.6205493 C60.9756098,35.8718626 61.5808491,35.2642327 62.3306233,35.2642327 C63.0785908,35.2642327 63.6856369,35.8718626 63.6856369,36.6205493 C63.6856369,37.3692361 63.0785908,37.976866 62.3306233,37.976866 C61.5808491,37.976866 60.9756098,37.3692361 60.9756098,36.6205493" id="Fill-19" fill="#2873E8"></path>
                        <path d="M49.6505736,35.2642327 L54.6854698,35.2642327 C55.1669173,35.2642327 55.5555556,35.8718626 55.5555556,36.6205493 C55.5555556,37.3692361 55.1669173,37.976866 54.6854698,37.976866 L49.6505736,37.976866 C49.1702862,37.976866 48.7804878,37.3692361 48.7804878,36.6205493 C48.7804878,35.8718626 49.1702862,35.2642327 49.6505736,35.2642327" id="Fill-20" fill="#2873E8"></path>
                        <path d="M40.1654787,35.2642327 L45.2003749,35.2642327 C45.6818224,35.2642327 46.0704607,35.8718626 46.0704607,36.6205493 C46.0704607,37.3692361 45.6818224,37.976866 45.2003749,37.976866 L40.1654787,37.976866 C39.6851914,37.976866 39.295393,37.3692361 39.295393,36.6205493 C39.295393,35.8718626 39.6851914,35.2642327 40.1654787,35.2642327" id="Fill-21" fill="#2873E8"></path>
                        <path d="M32.0353974,35.2642327 L37.0702936,35.2642327 C37.5517411,35.2642327 37.9403794,35.8718626 37.9403794,36.6205493 C37.9403794,37.3692361 37.5517411,37.976866 37.0702936,37.976866 L32.0353974,37.976866 C31.5551101,37.976866 31.1653117,37.3692361 31.1653117,36.6205493 C31.1653117,35.8718626 31.5551101,35.2642327 32.0353974,35.2642327" id="Fill-22" fill="#2873E8"></path>
                        <path d="M27.9703568,58.3216156 L33.005253,58.3216156 C33.4867004,58.3216156 33.8753388,58.9292455 33.8753388,59.6779323 C33.8753388,60.4266191 33.4867004,61.0342489 33.005253,61.0342489 L27.9703568,61.0342489 C27.4900694,61.0342489 27.100271,60.4266191 27.100271,59.6779323 C27.100271,58.9292455 27.4900694,58.3216156 27.9703568,58.3216156" id="Fill-23" fill="#2873E8"></path>
                        <path d="M34.7564255,39.3331826 L49.2544146,39.3331826 C49.7407745,39.3331826 50.1355014,39.9408125 50.1355014,40.6894993 C50.1355014,41.4399945 49.7407745,42.0458159 49.2544146,42.0458159 L34.7564255,42.0458159 C34.2700656,42.0458159 33.8753388,41.4399945 33.8753388,40.6894993 C33.8753388,39.9408125 34.2700656,39.3331826 34.7564255,39.3331826" id="Fill-24" fill="#2873E8"></path>
                        <path d="M53.7156142,39.3331826 L58.7505105,39.3331826 C59.2319579,39.3331826 59.6205962,39.9408125 59.6205962,40.6894993 C59.6205962,41.4399945 59.2319579,42.0458159 58.7505105,42.0458159 L53.7156142,42.0458159 C53.2353269,42.0458159 52.8455285,41.4399945 52.8455285,40.6894993 C52.8455285,39.9408125 53.2353269,39.3331826 53.7156142,39.3331826" id="Fill-25" fill="#2873E8"></path>
                        <path d="M29.8102981,46.1147658 C29.8102981,46.8634526 29.203252,47.4710825 28.4552846,47.4710825 C27.7073171,47.4710825 27.100271,46.8634526 27.100271,46.1147658 C27.100271,45.3642706 27.7073171,44.7584492 28.4552846,44.7584492 C29.203252,44.7584492 29.8102981,45.3642706 29.8102981,46.1147658" id="Fill-26" fill="#2873E8"></path>
                        <path d="M32.0353974,44.7584492 L37.0702936,44.7584492 C37.550581,44.7584492 37.9403794,45.3642706 37.9403794,46.1147658 C37.9403794,46.8634526 37.550581,47.4710825 37.0702936,47.4710825 L32.0353974,47.4710825 C31.55395,47.4710825 31.1653117,46.8634526 31.1653117,46.1147658 C31.1653117,45.3642706 31.55395,44.7584492 32.0353974,44.7584492" id="Fill-27" fill="#2873E8"></path>
                        <path d="M40.2260341,44.7584492 L65.4650228,44.7584492 C65.9787367,44.7584492 66.395664,45.3642706 66.395664,46.1147658 C66.395664,46.8634526 65.9787367,47.4710825 65.4650228,47.4710825 L40.2260341,47.4710825 C39.7110793,47.4710825 39.295393,46.8634526 39.295393,46.1147658 C39.295393,45.3642706 39.7110793,44.7584492 40.2260341,44.7584492" id="Fill-28" fill="#2873E8"></path>
                        <path d="M34.7454245,54.2526657 L39.7803207,54.2526657 C40.2606081,54.2526657 40.6504065,54.8602956 40.6504065,55.6089823 C40.6504065,56.3576691 40.2606081,56.965299 39.7803207,56.965299 L34.7454245,56.965299 C34.2639771,56.965299 33.8753388,56.3576691 33.8753388,55.6089823 C33.8753388,54.8602956 34.2639771,54.2526657 34.7454245,54.2526657" id="Fill-29" fill="#2873E8"></path>
                        <path d="M44.23652,54.2526657 L75.0046725,54.2526657 C75.4882721,54.2526657 75.8807588,54.8602956 75.8807588,55.6089823 C75.8807588,56.3576691 75.4882721,56.965299 75.0046725,56.965299 L44.23652,56.965299 C43.7517522,56.965299 43.3604336,56.3576691 43.3604336,55.6089823 C43.3604336,54.8602956 43.7517522,54.2526657 44.23652,54.2526657" id="Fill-30" fill="#2873E8"></path>
                    </g>
                </g>
            </g>
        </g>
    </g>
</svg>