<?xml version="1.0" encoding="UTF-8" standalone="no"?>
<svg width="138px" height="75px" viewBox="0 0 138 75" version="1.1" xmlns="http://www.w3.org/2000/svg" xmlns:xlink="http://www.w3.org/1999/xlink" xmlns:sketch="http://www.bohemiancoding.com/sketch/ns">
    <!-- Generator: Sketch 3.3.3 (12081) - http://www.bohemiancoding.com/sketch -->
    <title>Prototype (L)</title>
    <desc>Created with Sketch.</desc>
    <defs></defs>
    <g id="Home_non_signed_in" stroke="none" stroke-width="1" fill="none" fill-rule="evenodd" sketch:type="MSPage">
        <g id="BUILD.me---2A---What-is-BUILD" sketch:type="MSArtboardGroup" transform="translate(-381.000000, -579.000000)">
            <g id="Prototype-+-Feedback-+-Coding" sketch:type="MSLayerGroup" transform="translate(300.000000, 506.000000)">
                <g id="Prototype" sketch:type="MSShapeGroup">
                    <g id="Prototype-(L)" transform="translate(81.300813, 73.241099)">
                        <path d="M88.0758808,1.35631664 L111.111111,1.35631664 L111.111111,24.4136996 L88.0758808,24.4136996 L88.0758808,1.35631664 Z" id="Fill-3" fill="#18D6BF"></path>
                        <path d="M88.0758808,25.7700162 L111.111111,25.7700162 L111.111111,48.8273991 L88.0758808,48.8273991 L88.0758808,25.7700162 Z" id="Fill-3" fill="#C8C7C2"></path>
                        <path d="M88.0758808,50.1837158 L111.111111,50.1837158 L111.111111,73.2410987 L88.0758808,73.2410987 L88.0758808,50.1837158 Z" id="Fill-3" fill="#E8E8E5"></path>
                        <path d="M1.35501355,1.35631664 L135.501355,1.35631664 L135.501355,73.2410987 L1.35501355,73.2410987 L1.35501355,1.35631664 Z M0,74.5974153 L136.856369,74.5974153 L136.856369,0 L0,0 L0,74.5974153 Z" id="Fill-1" fill="#2F3337"></path>
                        <path d="M86.7208672,0 L88.0758808,0 L88.0758808,74.5974153 L86.7208672,74.5974153 L86.7208672,0 Z" id="Fill-2" fill="#2F3337"></path>
                        <path d="M111.111111,1.35631664 L112.466125,1.35631664 L112.466125,74.5974153 L111.111111,74.5974153 L111.111111,1.35631664 Z" id="Fill-3" fill="#2F3337"></path>
                        <path d="M86.7208672,24.4136996 L135.501355,24.4136996 L135.501355,25.7700162 L86.7208672,25.7700162 L86.7208672,24.4136996 Z" id="Fill-4" fill="#2F3337"></path>
                        <path d="M86.7208672,48.8273991 L135.501355,48.8273991 L135.501355,50.1837158 L86.7208672,50.1837158 L86.7208672,48.8273991 Z" id="Fill-5" fill="#2F3337"></path>
                        <path d="M115.176152,4.06894993 L132.791328,4.06894993 L132.791328,21.7010663 L115.176152,21.7010663 L115.176152,4.06894993 Z" id="Fill-6" fill="#333841"></path>
                        <path d="M115.176152,28.4826495 L132.791328,28.4826495 L132.791328,46.1147658 L115.176152,46.1147658 L115.176152,28.4826495 Z" id="Fill-7" fill="#C8C7C2"></path>
                        <path d="M9.48509485,1.35631664 L10.8401084,1.35631664 L10.8401084,74.5974153 L9.48509485,74.5974153 L9.48509485,1.35631664 Z" id="Fill-8" fill="#2F3337"></path>
                        <path d="M1.35501355,9.4942165 L88.0758808,9.4942165 L88.0758808,10.8505331 L1.35501355,10.8505331 L1.35501355,9.4942165 Z" id="Fill-9" fill="#2F3337"></path>
                        <path d="M17.6151762,5.42526657 L18.9701897,5.42526657 L18.9701897,10.8505331 L17.6151762,10.8505331 L17.6151762,5.42526657 Z" id="Fill-10" fill="#2F3337"></path>
                        <path d="M24.3902439,5.42526657 L25.7452575,5.42526657 L25.7452575,10.8505331 L24.3902439,10.8505331 L24.3902439,5.42526657 Z" id="Fill-11" fill="#2F3337"></path>
                        <path d="M31.1653117,5.42526657 L32.5203252,5.42526657 L32.5203252,10.8505331 L31.1653117,10.8505331 L31.1653117,5.42526657 Z" id="Fill-12" fill="#2F3337"></path>
                        <path d="M37.9403794,5.42526657 L39.295393,5.42526657 L39.295393,10.8505331 L37.9403794,10.8505331 L37.9403794,5.42526657 Z" id="Fill-13" fill="#2F3337"></path>
                        <path d="M44.7154472,5.42526657 L46.0704607,5.42526657 L46.0704607,10.8505331 L44.7154472,10.8505331 L44.7154472,5.42526657 Z" id="Fill-14" fill="#2F3337"></path>
                        <path d="M51.4905149,5.42526657 L52.8455285,5.42526657 L52.8455285,10.8505331 L51.4905149,10.8505331 L51.4905149,5.42526657 Z" id="Fill-15" fill="#2F3337"></path>
                        <path d="M58.2655827,5.42526657 L59.6205962,5.42526657 L59.6205962,10.8505331 L58.2655827,10.8505331 L58.2655827,5.42526657 Z" id="Fill-16" fill="#2F3337"></path>
                        <path d="M65.0406504,5.42526657 L66.395664,5.42526657 L66.395664,10.8505331 L65.0406504,10.8505331 L65.0406504,5.42526657 Z" id="Fill-17" fill="#2F3337"></path>
                        <path d="M71.8157182,5.42526657 L73.1707317,5.42526657 L73.1707317,10.8505331 L71.8157182,10.8505331 L71.8157182,5.42526657 Z" id="Fill-18" fill="#2F3337"></path>
                        <path d="M78.5907859,5.42526657 L79.9457995,5.42526657 L79.9457995,10.8505331 L78.5907859,10.8505331 L78.5907859,5.42526657 Z" id="Fill-19" fill="#2F3337"></path>
                        <path d="M5.4200542,65.1031988 L10.8401084,65.1031988 L10.8401084,66.4595155 L5.4200542,66.4595155 L5.4200542,65.1031988 Z" id="Fill-20" fill="#2F3337"></path>
                        <path d="M5.4200542,58.3216156 L10.8401084,58.3216156 L10.8401084,59.6779323 L5.4200542,59.6779323 L5.4200542,58.3216156 Z" id="Fill-21" fill="#2F3337"></path>
                        <path d="M5.4200542,51.5400324 L10.8401084,51.5400324 L10.8401084,52.8963491 L5.4200542,52.8963491 L5.4200542,51.5400324 Z" id="Fill-22" fill="#2F3337"></path>
                        <path d="M5.4200542,44.7584492 L10.8401084,44.7584492 L10.8401084,46.1147658 L5.4200542,46.1147658 L5.4200542,44.7584492 Z" id="Fill-23" fill="#2F3337"></path>
                        <path d="M5.4200542,37.976866 L10.8401084,37.976866 L10.8401084,39.3331826 L5.4200542,39.3331826 L5.4200542,37.976866 Z" id="Fill-24" fill="#2F3337"></path>
                        <path d="M5.4200542,31.1952828 L10.8401084,31.1952828 L10.8401084,32.5515994 L5.4200542,32.5515994 L5.4200542,31.1952828 Z" id="Fill-25" fill="#2F3337"></path>
                        <path d="M5.4200542,24.4136996 L10.8401084,24.4136996 L10.8401084,25.7700162 L5.4200542,25.7700162 L5.4200542,24.4136996 Z" id="Fill-26" fill="#2F3337"></path>
                        <path d="M5.4200542,17.6321164 L10.8401084,17.6321164 L10.8401084,18.988433 L5.4200542,18.988433 L5.4200542,17.6321164 Z" id="Fill-27" fill="#2F3337"></path>
                        <path d="M135.540474,50.2049082 L111.823105,73.9541914" id="Path-3922" stroke="#303337" stroke-width="1.6"></path>
                    </g>
                </g>
            </g>
        </g>
    </g>
</svg>