<?xml version="1.0" encoding="UTF-8" standalone="no"?>
<svg width="82px" height="103px" viewBox="0 0 82 103" version="1.1" xmlns="http://www.w3.org/2000/svg" xmlns:xlink="http://www.w3.org/1999/xlink" xmlns:sketch="http://www.bohemiancoding.com/sketch/ns">
    <!-- Generator: Sketch 3.3.3 (12081) - http://www.bohemiancoding.com/sketch -->
    <title>Study (L)</title>
    <desc>Created with Sketch.</desc>
    <defs></defs>
    <g id="Home_non_signed_in" stroke="none" stroke-width="1" fill="none" fill-rule="evenodd" sketch:type="MSPage">
        <g id="BUILD.me---2A---What-is-BUILD" sketch:type="MSArtboardGroup" transform="translate(-755.000000, -558.000000)">
            <g id="Prototype-+-Feedback-+-Coding" sketch:type="MSLayerGroup" transform="translate(300.000000, 506.000000)">
                <g id="Feedback" transform="translate(346.883469, 0.000000)" sketch:type="MSShapeGroup">
                    <g id="Study-(L)" transform="translate(108.401084, 52.896349)">
                        <path d="M1.35501355,13.5739826 L1.35501355,13.5739826 L1.35501355,96.2876655 C1.35501355,98.5425781 3.17807465,100.367432 5.42893712,100.367432 L75.8718759,100.367432 C78.120161,100.367432 79.9457995,98.539984 79.9457995,96.2876655 L79.9457995,13.5739826 C79.9457995,11.31907 78.1227384,9.4942165 75.8718759,9.4942165 L5.42893712,9.4942165 C3.18065198,9.4942165 1.35501355,11.321664 1.35501355,13.5739826 L1.35501355,13.5739826 Z M0,13.5739826 C0,10.571717 2.43317184,8.13789985 5.42893712,8.13789985 L75.8718759,8.13789985 C78.8701951,8.13789985 81.300813,10.5690995 81.300813,13.5739826 L81.300813,96.2876655 C81.300813,99.2899311 78.8676412,101.723748 75.8718759,101.723748 L5.42893712,101.723748 C2.43061794,101.723748 0,99.2925486 0,96.2876655 L0,13.5739826 L0,13.5739826 Z" id="Shape" fill="#333841"></path>
                        <path d="M8.1300813,16.2707913 L8.1300813,16.2707913 L8.1300813,92.2345401 C8.1300813,92.9809207 8.73259632,93.5858483 9.47278329,93.5858483 L71.8280297,93.5858483 C72.5705576,93.5858483 73.1707317,92.9829889 73.1707317,92.2345401 L73.1707317,16.2707913 C73.1707317,15.5244107 72.5682167,14.9194831 71.8280297,14.9194831 L9.47278329,14.9194831 C8.73025541,14.9194831 8.1300813,15.5223425 8.1300813,16.2707913 L8.1300813,16.2707913 Z M6.77506775,16.2707913 C6.77506775,14.7754114 7.97976189,13.5631664 9.47278329,13.5631664 L71.8280297,13.5631664 C73.3179369,13.5631664 74.5257453,14.7767041 74.5257453,16.2707913 L74.5257453,92.2345401 C74.5257453,93.72992 73.3210511,94.942165 71.8280297,94.942165 L9.47278329,94.942165 C7.98287614,94.942165 6.77506775,93.7286273 6.77506775,92.2345401 L6.77506775,16.2707913 L6.77506775,16.2707913 Z" id="Shape" fill="#333841"></path>
                        <path d="M16.4483103,36.4113959 L19.5116583,39.6138532 C19.7704332,39.8843793 20.1993056,39.8937037 20.4695717,39.6346801 C20.7398378,39.3756564 20.7491533,38.9463715 20.4903785,38.6758455 L17.4270304,35.4733882 C17.1682556,35.2028622 16.7393832,35.1935377 16.4691171,35.4525614 C16.198851,35.711585 16.1895355,36.1408699 16.4483103,36.4113959 L16.4483103,36.4113959 Z" id="Shape" fill="#666666"></path>
                        <path d="M26.5643753,33.6928714 C26.8198989,33.4192664 26.8054541,32.9901238 26.532112,32.7343546 C26.2587699,32.4785853 25.8300396,32.493044 25.5745161,32.7666489 L20.5077828,38.1919155 C20.2522593,38.4655204 20.2667041,38.894663 20.5400461,39.1504323 C20.8133882,39.4062016 21.2421185,39.3917429 21.4976421,39.1181379 L26.5643753,33.6928714 Z" id="Shape" fill="#666666"></path>
                        <path d="M22.6383561,54.2526657 L25.5468203,57.163927 C25.8114032,57.4287643 25.8114032,57.8581504 25.5468203,58.1229877 C25.2822375,58.387825 24.8532639,58.387825 24.588681,58.1229877 L21.6802168,55.2117264 L18.7717526,58.1229877 C18.5071697,58.387825 18.0781961,58.387825 17.8136133,58.1229877 C17.5490304,57.8581504 17.5490304,57.4287643 17.8136133,57.163927 L20.7220775,54.2526657 L17.8136133,51.3414044 C17.5490304,51.0765671 17.5490304,50.647181 17.8136133,50.3823437 C18.0781961,50.1175064 18.5071697,50.1175064 18.7717526,50.3823437 L21.6802168,53.293605 L24.588681,50.3823437 C24.8532639,50.1175064 25.2822375,50.1175064 25.5468203,50.3823437 C25.8114032,50.647181 25.8114032,51.0765671 25.5468203,51.3414044 L22.6383561,54.2526657 Z" id="Shape" fill="#EE6B50"></path>
                        <path d="M22.6383561,71.8847821 L25.5468203,74.7960433 C25.8114032,75.0608806 25.8114032,75.4902667 25.5468203,75.755104 C25.2822375,76.0199413 24.8532639,76.0199413 24.588681,75.755104 L21.6802168,72.8438427 L18.7717526,75.755104 C18.5071697,76.0199413 18.0781961,76.0199413 17.8136133,75.755104 C17.5490304,75.4902667 17.5490304,75.0608806 17.8136133,74.7960433 L20.7220775,71.8847821 L17.8136133,68.9735208 C17.5490304,68.7086835 17.5490304,68.2792974 17.8136133,68.0144601 C18.0781961,67.7496228 18.5071697,67.7496228 18.7717526,68.0144601 L21.6802168,70.9257214 L24.588681,68.0144601 C24.8532639,67.7496228 25.2822375,67.7496228 25.5468203,68.0144601 C25.8114032,68.2792974 25.8114032,68.7086835 25.5468203,68.9735208 L22.6383561,71.8847821 Z" id="Shape" fill="#EE6B50"></path>
                        <rect id="Rectangle-351" fill="#666666" x="31.1653117" y="33.9079161" width="32.5203252" height="1.35631664" rx="1.6"></rect>
                        <rect id="Rectangle-351" fill="#666666" x="31.1653117" y="39.3331826" width="24.3902439" height="1.35631664" rx="1.6"></rect>
                        <rect id="Rectangle-351" fill="#F06B50" x="31.1653117" y="51.5400324" width="32.5203252" height="1.35631664" rx="1.6"></rect>
                        <rect id="Rectangle-351" fill="#F06B50" x="31.1653117" y="56.965299" width="24.3902439" height="1.35631664" rx="1.6"></rect>
                        <rect id="Rectangle-351" fill="#F06B50" x="31.1653117" y="69.1721488" width="32.5203252" height="1.35631664" rx="1.6"></rect>
                        <rect id="Rectangle-351" fill="#F06B50" x="31.1653117" y="74.5974153" width="24.3902439" height="1.35631664" rx="1.6"></rect>
                        <path d="M50.0283269,7.54918082 L50.0283269,7.54918082 L54.4750831,7.55335562 C56.0433804,7.55335562 57.204992,9.06654453 56.8445758,10.6477136 L55.5551325,16.1557884 C55.3418591,17.2938273 54.4580364,17.6244964 53.328083,17.6244964 L27.9625776,17.6244964 C26.8326243,17.6244964 25.9921812,17.2295716 25.7340453,16.1557884 L24.4460848,10.6477136 C24.0856686,9.06654453 25.5281778,7.39287665 27.0964752,7.34354018 L31.2623338,7.54918082 C31.8346162,7.55335562 32.2948774,7.12784992 32.440992,6.55631268 C33.4029136,2.78718822 37.5982764,-2.02170259e-16 40.6453303,0 C43.6923842,1.99332078e-16 47.8877471,2.78718822 48.8496686,6.55631268 C48.9957832,7.12784992 49.4560444,7.55335562 50.0283269,7.54918082 L50.0283269,7.54918082 Z" id="Shape" fill="#333841"></path>
                        <path d="M50.0282905,8.90549692 L50.0282905,8.90549692 L50.0385836,8.9054642 C48.8540169,8.91410561 47.8552658,8.0497542 47.5448385,6.83549647 C46.8111606,3.96070547 43.3548926,1.35631664 40.6464676,1.35631664 C37.9380427,1.35631664 34.4817747,3.96070547 33.7479362,6.83612514 C33.4376694,8.0497542 32.4389184,8.91410561 31.2018249,8.90397672 L27.136923,8.69923863 C26.3506065,8.72397506 25.6298968,9.60051212 25.7607048,10.1744855 L27.0464132,15.6730622 C27.1084671,15.9311915 27.2932438,16.043397 27.963715,16.043397 L53.3292203,16.043397 C54.0457052,16.043397 54.1891311,15.9604372 54.2428785,15.68217 L55.5302547,10.1830432 C55.67464,9.54961519 55.1842044,8.90967226 54.4750467,8.90967171 L50.0282905,8.90549692 Z" id="Path" fill="#E8E8E5"></path>
                        <path d="M40.6504065,8.13789985 C39.902439,8.13789985 39.295393,7.53027 39.295393,6.78158321 C39.295393,6.03289643 39.902439,5.42526657 40.6504065,5.42526657 C41.399729,5.42526657 42.0054201,6.03289643 42.0054201,6.78158321 C42.0054201,7.53027 41.399729,8.13789985 40.6504065,8.13789985 Z" id="Fill-2" fill="#333841"></path>
                    </g>
                </g>
            </g>
        </g>
    </g>
</svg>