<?xml version="1.0" encoding="UTF-8" standalone="no"?>
<svg width="107px" height="25px" viewBox="0 0 107 25" version="1.1" xmlns="http://www.w3.org/2000/svg" xmlns:xlink="http://www.w3.org/1999/xlink" xmlns:sketch="http://www.bohemiancoding.com/sketch/ns">
    <!-- Generator: Sketch 3.3.3 (12081) - http://www.bohemiancoding.com/sketch -->
    <title>Build Logo Copy</title>
    <desc>Created with Sketch.</desc>
    <defs></defs>
    <g id="Page-1" stroke="none" stroke-width="1" fill="none" fill-rule="evenodd" sketch:type="MSPage">
        <g id="Artboard-2" sketch:type="MSArtboardGroup" transform="translate(-182.000000, -48.000000)">
            <g id="INTRO" sketch:type="MSLayerGroup" transform="translate(-5.000000, -1.000000)">
                <g id="Shell" transform="translate(186.618750, 49.000000)" sketch:type="MSShapeGroup">
                    <g id="Build-Logo-Copy" transform="translate(1.000000, 0.000000)">
                        <path d="M19.9721707,11.0388328 C20.6070675,9.94290998 20.9412237,8.71285926 20.9412237,7.4620896 C20.9412237,3.34774442 17.4037769,0 13.0551372,0 C12.9295406,0 12.8039439,0.00654282297 12.6610634,0.0239903509 L3.21250861,0.0239903509 C1.44032847,0.0239903509 0,1.38816894 0,3.06422209 L0,21.7385293 C0,23.4145825 1.44032847,24.7787611 3.21250861,24.7787611 L14.1832025,24.7787611 L14.4655069,24.7667659 C19.0284675,24.6239143 22.6039388,21.1278658 22.6039388,16.8106932 C22.6039388,14.6264808 21.6475607,12.5393202 19.9721707,11.0388328 L19.9721707,11.0388328 Z M16.0113364,16.519174 C16.0113364,17.6590448 15.1294266,18.5840708 14.0466183,18.5840708 L6.40453458,18.5840708 L6.40453458,14.4542773 L14.0466183,14.4542773 C15.1294266,14.4542773 16.0113364,15.3804969 16.0113364,16.519174 L16.0113364,16.519174 Z M6.40453458,9.2920354 L6.40453458,6.20453092 L13.4029093,6.20453092 L13.6449456,6.19469027 C14.3892983,6.31277809 14.943914,6.96841151 14.943914,7.73475226 C14.943914,8.59334913 14.2530769,9.2920354 13.4029093,9.2920354 L6.40453458,9.2920354 L6.40453458,9.2920354 Z" id="Fill-5" fill="#FFFFFF"></path>
                        <path d="M93.8184848,0 L85.3216055,0 C83.5941343,0 82.1890195,1.36550064 82.1890195,3.04317809 L82.1890195,21.735583 C82.1890195,23.4132604 83.5941343,24.7787611 85.3216055,24.7787611 L93.8151152,24.7787611 L93.9038475,24.774395 C100.699167,24.6881643 105.822051,19.3626026 105.822051,12.3899263 C105.822051,5.42052453 100.701413,0.0949628744 93.9285577,0.00436610917 L93.8184848,0 Z M99.2677784,12.389917 C99.2677784,15.9789425 96.9585783,18.5840708 93.776543,18.5840708 L88.5935541,18.5840708 L88.5935541,6.19469027 L93.776543,6.19469027 C96.9585783,6.19469027 99.2677784,8.79981852 99.2677784,12.389917 L99.2677784,12.389917 Z" id="Fill-6" fill="#FFFFFF"></path>
                        <path d="M67.2476131,18.5880685 L67.2476131,3.04317809 C67.1854858,1.36550064 65.928391,0 64.1216122,0 C62.3148333,0 60.8430785,1.36550064 60.8430785,3.04317809 L60.8430785,21.735583 C60.8430785,23.4132604 62.3148333,24.7787611 64.1216122,24.7787611 L76.0367134,24.7787611 C77.8446678,24.7787611 79.3152471,23.4132604 79.3152471,21.735583 C79.3152471,20.0579055 77.8446678,18.5880685 76.0367134,18.5880685 L67.2476131,18.5880685 Z" id="Fill-7" fill="#FFFFFF"></path>
                        <path d="M57.6408112,13.0205263 C57.2536467,14.30257 55.9646867,15.2483221 54.4386629,15.2483221 C52.9126391,15.2483221 51.6236791,14.30257 51.2365145,13.0205263 L51.2365145,21.8533506 C51.2388971,23.4662443 52.6731927,24.7765844 54.4386629,24.7787611 C56.204133,24.7765844 57.6372374,23.4662443 57.6408112,21.8533506 L57.6408112,13.0205263" id="Fill-8" fill="#EE9E37"></path>
                        <path d="M54.4386629,0.0589997184 C52.6731927,0.0623240391 51.2388971,1.39537666 51.2365145,3.0375911 L51.2365145,11.3417443 C51.6236791,10.0352863 52.9126391,9.07234135 54.4386629,9.07234135 C55.9646867,9.07234135 57.2536467,10.0352863 57.6408112,11.3417443 L57.6408112,3.0375911 C57.6372374,1.39537666 56.204133,0.0623240391 54.4386629,0.0589997184" id="Fill-10" fill="#6AB545"></path>
                        <path d="M54.4386629,9.07234135 C52.9126391,9.07234135 51.6236791,10.0352863 51.2365145,11.3417443 L51.2365145,13.0205263 C51.6236791,14.3258762 52.9126391,15.2888211 54.4386629,15.2888211 C55.9646867,15.2888211 57.2536467,14.3258762 57.6408112,13.0205263 L57.6408112,11.3417443 C57.2536467,10.0352863 55.9646867,9.07234135 54.4386629,9.07234135" id="Fill-12" fill="#727D3D"></path>
                        <path d="M28.8210011,0 C27.0557937,0.00317680362 25.6217116,1.27707505 25.6181383,2.84641604 L25.6181383,13.7682669 C26.0064363,12.519783 27.2952045,11.6006279 28.8210011,11.6006279 C30.3467978,11.6006279 31.635566,12.519783 32.0226729,13.7682669 L32.0226729,2.84641604 C32.0190996,1.27707505 30.5862086,0.00317680362 28.8210011,0" id="Fill-14" fill="#D82557"></path>
                        <path d="M44.831742,0 C43.0662063,0.00317681246 41.6318574,1.27707861 41.6294748,2.84642397 L41.6294748,13.7693641 C42.0166536,12.5208769 43.3056615,11.6006602 44.831742,11.6006602 C46.3578225,11.6006602 47.6468304,12.5198179 48.0340093,13.7683052 L48.0340093,2.84642397 C48.0316267,1.27707861 46.5972778,0.00317681246 44.831742,0" id="Fill-16" fill="#2C78B0"></path>
                        <path d="M41.8975533,15.1541326 C41.7377498,15.9601194 41.2537734,16.7312587 40.5061211,17.3720013 C39.49251,18.23869 38.1490188,18.7344225 36.8112349,18.7344225 C34.3388458,18.7321742 32.133557,17.1393106 31.7534528,15.1586291 C31.4726552,16.6053584 30.1782465,17.7024896 28.6281522,17.7024896 C27.2355784,17.7024896 26.0484664,16.8166911 25.6181383,15.5869149 C25.8898043,17.9542902 27.098604,20.1137052 28.8952524,21.7447886 C30.9453035,23.6085627 33.7601287,24.7787611 36.8112349,24.7787611 C39.8703313,24.7787611 42.6920052,23.6074386 44.7477636,21.7447886 C46.5489778,20.1137052 47.7600604,17.9542902 48.0340093,15.5869149 C47.6036812,16.8166911 46.4165692,17.7024896 45.0239955,17.7024896 C43.4727597,17.7024896 42.1772095,16.6031102 41.8975533,15.1541326" id="Fill-18" fill="#814C8D"></path>
                        <path d="M28.7914926,11.5221329 C27.2797533,11.5221329 26.0028588,12.4745727 25.6181383,13.7682669 L25.6181383,14.581352 C25.6181383,14.9160227 25.6393805,15.2484988 25.6795048,15.5765858 C26.1244116,16.7770111 27.3517409,17.6416684 28.7914926,17.6416684 C30.3941014,17.6416684 31.7323623,16.5707223 32.0226729,15.1585218 C31.9849089,14.9686922 31.9648468,14.776668 31.9636667,14.581352 L31.9636667,13.7682669 C31.5801263,12.4745727 30.3032318,11.5221329 28.7914926,11.5221329" id="Fill-20" fill="#802D56"></path>
                        <path d="M44.8071426,11.5221329 C43.2693389,11.5221329 41.9704289,12.47567 41.5802758,13.7693641 L41.5802758,14.581352 C41.5802758,14.7733762 41.5586673,14.964303 41.5190517,15.1541326 C41.8131672,16.5685277 43.1757021,17.6416684 44.8071426,17.6416684 C46.2717175,17.6416684 47.5202076,16.7770111 47.9727853,15.5765858 C48.0136013,15.2484988 48.0340093,14.91712 48.0340093,14.581352 L48.0340093,13.7682669 C47.6438562,12.4745727 46.3449463,11.5221329 44.8071426,11.5221329" id="Fill-22" fill="#373B82"></path>
                    </g>
                </g>
            </g>
        </g>
    </g>
</svg>