<?xml version="1.0" encoding="UTF-8" standalone="no"?>
<svg width="468px" height="112px" viewBox="0 0 468 112" version="1.1" xmlns="http://www.w3.org/2000/svg" xmlns:xlink="http://www.w3.org/1999/xlink" xmlns:sketch="http://www.bohemiancoding.com/sketch/ns">
    <!-- Generator: Sketch 3.3.3 (12081) - http://www.bohemiancoding.com/sketch -->
    <title>Build Logo</title>
    <desc>Created with Sketch.</desc>
    <defs></defs>
    <g id="Page-1" stroke="none" stroke-width="1" fill="none" fill-rule="evenodd" sketch:type="MSPage">
        <g id="Artboard-2" sketch:type="MSArtboardGroup" transform="translate(-564.000000, -224.000000)">
            <g id="INTRO" sketch:type="MSLayerGroup" transform="translate(-5.000000, -1.000000)">
                <g id="Group" transform="translate(497.313750, 225.000000)" sketch:type="MSShapeGroup">
                    <g id="Build-Logo" transform="translate(72.125625, 0.000000)">
                        <path d="M88.1433135,49.8955244 C90.9453077,44.9419531 92.4200415,39.3821238 92.4200415,33.728645 C92.4200415,15.1318048 76.8082044,0 57.6163239,0 C57.0620274,0 56.5077309,0.0295735598 55.8771551,0.108436386 L14.1777856,0.108436386 C6.3566112,0.108436386 0,6.27452361 0,13.8502839 L0,98.2581525 C0,105.833913 6.3566112,112 14.1777856,112 L62.5948218,112 L63.8407176,111.945782 C83.9784618,111.300092 99.7581135,95.4979536 99.7581135,75.9843331 C99.7581135,66.111693 95.5373236,56.6777274 88.1433135,49.8955244 L88.1433135,49.8955244 Z M70.6629375,74.6666667 C70.6629375,79.8188825 66.7707989,84 61.992034,84 L28.265175,84 L28.265175,65.3333333 L61.992034,65.3333333 C66.7707989,65.3333333 70.6629375,69.5198459 70.6629375,74.6666667 L70.6629375,74.6666667 Z M28.265175,42 L28.265175,28.0444797 L59.1511489,28.0444797 L60.2193291,28 C63.5043857,28.5337569 65.952075,31.49722 65.952075,34.9610802 C65.952075,38.841938 62.9031989,42 59.1511489,42 L28.265175,42 L28.265175,42 Z" id="Fill-5" fill="#FFFFFF"></path>
                        <path d="M414.049742,0 L376.550408,0 C368.926548,0 362.725346,6.1720629 362.725346,13.755165 L362.725346,98.244835 C362.725346,105.827937 368.926548,112 376.550408,112 L414.034871,112 L414.426474,111.980265 C444.416302,111.590503 467.025162,87.5189639 467.025162,56.0024669 C467.025162,24.5007709 444.426216,0.429232192 414.535528,0.0197348134 L414.049742,0 Z M438.099146,56.0024249 C438.099146,72.2248203 427.907938,84 413.86464,84 L390.990521,84 L390.990521,28 L413.86464,28 C427.907938,28 438.099146,39.7751797 438.099146,56.0024249 L438.099146,56.0024249 Z" id="Fill-6" fill="#FFFFFF"></path>
                        <path d="M296.784338,84.0180697 L296.784338,13.755165 C296.510151,6.1720629 290.962206,0 282.988337,0 C275.014468,0 268.519163,6.1720629 268.519163,13.755165 L268.519163,98.244835 C268.519163,105.827937 275.014468,112 282.988337,112 L335.573333,112 C343.55239,112 350.042507,105.827937 350.042507,98.244835 C350.042507,90.661733 343.55239,84.0180697 335.573333,84.0180697 L296.784338,84.0180697 Z" id="Fill-7" fill="#FFFFFF"></path>
                        <path d="M254.386575,58.8527788 C252.677899,64.6476165 246.989324,68.9224161 240.254513,68.9224161 C233.519702,68.9224161 227.831126,64.6476165 226.12245,58.8527788 L226.12245,98.7771445 C226.132965,106.067424 232.462951,111.990162 240.254513,112 C248.046074,111.990162 254.370803,106.067424 254.386575,98.7771445 L254.386575,58.8527788" id="Fill-8" fill="#EE9E37"></path>
                        <path d="M240.254513,0.266678727 C232.462951,0.281704657 226.132965,6.30710248 226.12245,13.7299118 L226.12245,51.2646843 C227.831126,45.3594939 233.519702,41.0069829 240.254513,41.0069829 C246.989324,41.0069829 252.677899,45.3594939 254.386575,51.2646843 L254.386575,13.7299118 C254.370803,6.30710248 248.046074,0.281704657 240.254513,0.266678727" id="Fill-10" fill="#6AB545"></path>
                        <path d="M240.254513,41.0069829 C233.519702,41.0069829 227.831126,45.3594939 226.12245,51.2646843 L226.12245,58.8527788 C227.831126,64.7529605 233.519702,69.1054715 240.254513,69.1054715 C246.989324,69.1054715 252.677899,64.7529605 254.386575,58.8527788 L254.386575,51.2646843 C252.677899,45.3594939 246.989324,41.0069829 240.254513,41.0069829" id="Fill-12" fill="#727D3D"></path>
                        <path d="M127.195916,0 C119.405514,0.0143591523 113.07647,5.77237924 113.0607,12.8658005 L113.0607,62.2325662 C114.774378,56.5894194 120.462107,52.434838 127.195916,52.434838 C133.929725,52.434838 139.617454,56.5894194 141.325875,62.2325662 L141.325875,12.8658005 C141.310105,5.77237924 134.986317,0.0143591523 127.195916,0" id="Fill-14" fill="#D82557"></path>
                        <path d="M197.856225,0 C190.064374,0.0143591923 183.734153,5.77239532 183.723638,12.8658363 L183.723638,62.237526 C185.432377,56.5943634 191.121164,52.434984 197.856225,52.434984 C204.591286,52.434984 210.280073,56.589577 211.988813,62.2327396 L211.988813,12.8658363 C211.978297,5.77239532 205.648076,0.0143591923 197.856225,0" id="Fill-16" fill="#2C78B0"></path>
                        <path d="M184.906751,68.4966795 C184.201489,72.1397396 182.065552,75.6252895 178.765933,78.5214461 C174.292557,82.4388789 168.363318,84.6795895 162.459268,84.6795895 C151.547857,84.6694276 141.81524,77.4696839 140.137724,68.5170034 C138.898478,75.0562201 133.185856,80.0152531 126.344814,80.0152531 C120.198959,80.0152531 114.95987,76.0114437 113.0607,70.4528554 C114.259645,81.1533919 119.594449,90.9139477 127.523609,98.2864445 C136.571114,106.710703 148.9938,112 162.459268,112 C175.959998,112 188.41291,106.705623 197.485603,98.2864445 C205.434913,90.9139477 210.779792,81.1533919 211.988812,70.4528554 C210.089643,76.0114437 204.850553,80.0152531 198.704698,80.0152531 C191.858619,80.0152531 186.140959,75.0460582 184.906751,68.4966795" id="Fill-18" fill="#814C8D"></path>
                        <path d="M127.065685,52.0800407 C120.393917,52.0800407 114.75859,56.3850686 113.0607,62.2325662 L113.0607,65.9077111 C113.0607,67.4204225 113.154449,68.9232145 113.331529,70.4061677 C115.295039,75.83209 120.71162,79.7403412 127.065685,79.7403412 C134.138489,79.7403412 140.044645,74.8996646 141.325875,68.5165183 C141.159211,67.6584886 141.070671,66.7905394 141.065462,65.9077111 L141.065462,62.2325662 C139.372781,56.3850686 133.737454,52.0800407 127.065685,52.0800407" id="Fill-20" fill="#802D56"></path>
                        <path d="M197.74766,52.0800407 C190.960861,52.0800407 185.228373,56.3900283 183.506507,62.237526 L183.506507,65.9077111 C183.506507,66.7756603 183.411142,67.6386497 183.236307,68.4966795 C184.534329,74.8897452 190.547613,79.7403412 197.74766,79.7403412 C204.211278,79.7403412 209.721248,75.83209 211.718612,70.4061677 C211.898746,68.9232145 211.988812,67.4253822 211.988812,65.9077111 L211.988812,62.2325662 C210.266947,56.3850686 204.534459,52.0800407 197.74766,52.0800407" id="Fill-22" fill="#373B82"></path>
                    </g>
                </g>
            </g>
        </g>
    </g>
</svg>