<?xml version="1.0" encoding="UTF-8" standalone="no"?>
<svg width="95px" height="94px" viewBox="0 0 95 94" version="1.1" xmlns="http://www.w3.org/2000/svg" xmlns:xlink="http://www.w3.org/1999/xlink" xmlns:sketch="http://www.bohemiancoding.com/sketch/ns">
    <!-- Generator: Sketch 3.3.3 (12081) - http://www.bohemiancoding.com/sketch -->
    <title>Github</title>
    <desc>Created with Sketch.</desc>
    <defs>
        <linearGradient x1="50%" y1="0%" x2="50%" y2="100%" id="linearGradient-1">
            <stop stop-color="#482D76" offset="0%"></stop>
            <stop stop-color="#97329B" offset="100%"></stop>
        </linearGradient>
    </defs>
    <g id="Page-1" stroke="none" stroke-width="1" fill="none" fill-rule="evenodd" sketch:type="MSPage">
        <g id="Artboard-2" sketch:type="MSArtboardGroup" transform="translate(-748.000000, -2853.000000)">
            <g id="Github" sketch:type="MSLayerGroup" transform="translate(748.000000, 2853.000000)">
                <path d="M0.533379134,47 C0.533379134,21.0426155 21.4814496,0 47.322207,0 C73.1629643,0 94.1110348,21.0426155 94.1110348,47 C94.1110348,72.9573845 73.1629643,94 47.322207,94 C21.4814496,94 0.533379134,72.9573845 0.533379134,47 Z" fill="#E4EAF7" sketch:type="MSShapeGroup"></path>
                <path d="M28.8458388,50.0323719 C31.0441801,53.9729046 35.2838384,56.4245598 42.4344871,57.1026772 C41.4138287,57.8672359 40.1878306,59.3188542 40.0187274,60.9970084 C38.7353551,61.8167107 36.1550217,62.0864673 34.1484313,61.4620032 C31.337091,60.5856669 30.260568,55.0906805 26.0511068,55.8731237 C25.1391575,56.0430256 25.3203394,56.636192 26.108481,57.1399363 C27.3918534,57.9596387 28.5997332,58.9850118 29.5313106,61.1684007 C30.2469794,62.8450646 31.7507898,65.840704 36.5068167,65.840704 C38.394129,65.840704 39.7167575,65.6171488 39.7167575,65.6171488 C39.7167575,65.6171488 39.7529939,69.895995 39.7529939,71.5592456 C39.7529939,73.477349 37.1303847,74.0183525 37.1303847,74.9408903 C37.1303847,75.3060304 37.9985484,75.3403089 38.696099,75.3403089 C40.0745919,75.3403089 42.9433065,74.2046485 42.9433065,72.2105363 C42.9433065,70.6262753 42.968974,65.2997005 42.968974,64.3682205 C42.968974,62.3308877 44.0756939,61.6855584 44.0756939,61.6855584 C44.0756939,61.6855584 44.2130902,72.5607728 43.8114702,74.0183525 C43.340397,75.7322756 42.4903516,75.4893456 42.4903516,76.2539044 C42.4903516,77.3910551 45.9433781,76.5326032 47.0878443,74.036237 C47.9726163,72.0927973 47.5860947,61.424744 47.5860947,61.424744 L48.5297508,61.4053692 C48.5297508,61.4053692 48.5825956,66.2893047 48.5508887,68.5218758 C48.5176721,70.8334364 48.3591378,73.7575382 49.7497095,75.1361285 C50.6631686,76.0422721 53.625494,77.6324946 53.625494,76.179386 C53.625494,75.3343474 52.0024054,74.639836 52.0024054,72.3536116 L52.0024054,61.8345952 C53.2978566,61.8345952 53.103086,65.293739 53.103086,65.293739 L53.1982065,71.7202053 C53.1982065,71.7202053 52.9128449,74.0615732 55.7634413,75.0422353 C56.7690013,75.389491 58.9220472,75.4833842 59.0232071,74.9006503 C59.124367,74.3164261 56.430795,73.4475417 56.4066374,71.6337639 C56.3915389,70.527911 56.4564624,69.8825817 56.4564624,65.0761453 C56.4564624,60.2697089 55.8026974,58.4931904 53.524334,57.0773409 C60.5557047,56.3634547 64.9070918,54.6464019 67.0284308,50.0472756 C67.194073,50.0526447 67.891986,47.8989129 67.8014739,47.8996555 C68.2770766,46.1633769 68.5337511,44.10965 68.585086,41.6773696 C68.5730072,35.0824918 65.3751453,32.7500661 64.7606364,31.6546457 C65.6665463,26.6619133 64.6096514,24.3891023 64.1189502,23.6096399 C62.3071304,22.9732528 57.8153272,25.2460638 55.3618213,26.8482093 C51.3607193,25.6931742 42.9055603,25.8049518 39.7348757,27.1462828 C33.8842076,23.010512 30.7890155,23.6439183 30.7890155,23.6439183 C30.7890155,23.6439183 28.7884645,27.183542 30.260568,32.3625704 C28.3355095,34.7844182 26.9011522,36.4983413 26.9011522,41.0409826 C26.9011522,43.5999442 27.2061419,45.8906396 27.8946334,47.8907133 C27.810233,47.8905079 28.8180114,50.0330318 28.8458388,50.0323719 Z" id="Path" fill="url(#linearGradient-1)" sketch:type="MSShapeGroup"></path>
            </g>
        </g>
    </g>
</svg>