<?xml version="1.0" encoding="UTF-8" standalone="no"?>
<svg width="232px" height="231px" viewBox="0 0 232 231" version="1.1" xmlns="http://www.w3.org/2000/svg" xmlns:xlink="http://www.w3.org/1999/xlink" xmlns:sketch="http://www.bohemiancoding.com/sketch/ns">
    <!-- Generator: Sketch 3.3.3 (12081) - http://www.bohemiancoding.com/sketch -->
    <title>Upload Files</title>
    <desc>Created with Sketch.</desc>
    <defs></defs>
    <g id="Page-1" stroke="none" stroke-width="1" fill="none" fill-rule="evenodd" sketch:type="MSPage">
        <g id="Artboard-2" sketch:type="MSArtboardGroup" transform="translate(-800.000000, -1313.000000)">
            <g id="Upload-Files" sketch:type="MSLayerGroup" transform="translate(803.554632, 1314.906250)">
                <rect id="White-Box" fill="#FFFFFF" sketch:type="MSShapeGroup" x="0" y="0" width="225" height="225"></rect>
                <text id="Upload-files-to-use-" sketch:type="MSTextLayer" font-family="Lato" font-size="14" font-weight="260" sketch:alignment="middle" line-spacing="26" letter-spacing="1.36111116" fill="#000000">
                    <tspan x="45.3229439" y="144.857143">Upload files to use </tspan>
                    <tspan x="48.5794995" y="170.857143">in your prototype </tspan>
                    <tspan x="80.7437436" y="196.857143">or study</tspan>
                    <tspan x="139.638633" y="196.857143" letter-spacing="1.85262358">.</tspan>
                </text>
                <g id="Upload-Files-Icon-Copy" transform="translate(83.500000, 39.500000)" sketch:type="MSShapeGroup">
                    <path d="M57,64 C57,64.552 56.552,65 56,65 L9,65 C8.448,65 8,64.552 8,64 L8,2 C8,1.447 8.448,1 9,1 L56,1 C56.552,1 57,1.447 57,2 L57,64" id="Fill-1" fill="#FCFBFB"></path>
                    <path d="M56.5,65 L9.5,65 C8.673,65 8,64.327 8,63.5 L8,1.5 C8,0.673 8.673,0 9.5,0 L56.5,0 C57.327,0 58,0.673 58,1.5 L58,63.5 C58,64.327 57.327,65 56.5,65 L56.5,65 Z M9.5,1 C9.225,1 9,1.225 9,1.5 L9,63.5 C9,63.775 9.225,64 9.5,64 L56.5,64 C56.775,64 57,63.775 57,63.5 L57,1.5 C57,1.225 56.775,1 56.5,1 L9.5,1 L9.5,1 Z" id="Fill-2" fill="#333841"></path>
                    <path d="M53,68 C53,68.553 52.552,69 52,69 L5,69 C4.448,69 4,68.553 4,68 L4,6 C4,5.447 4.448,5 5,5 L52,5 C52.552,5 53,5.447 53,6 L53,68" id="Fill-3" fill="#FCFBFB"></path>
                    <path d="M52.5,69 L5.5,69 C4.673,69 4,68.327 4,67.5 L4,5.5 C4,4.673 4.673,4 5.5,4 L52.5,4 C53.327,4 54,4.673 54,5.5 L54,67.5 C54,68.327 53.327,69 52.5,69 L52.5,69 Z M5.5,5 C5.225,5 5,5.225 5,5.5 L5,67.5 C5,67.775 5.225,68 5.5,68 L52.5,68 C52.775,68 53,67.775 53,67.5 L53,5.5 C53,5.225 52.775,5 52.5,5 L5.5,5 L5.5,5 Z" id="Fill-4" fill="#333841"></path>
                    <path d="M35.225,9 L1.531,9 C0.962,9 0,8.962 0,9.531 L0,71.424 C0,72.016 0.984,73 1.576,73 L47.737,73 C48.707,73 49,71.707 49,70.737 L49,22.465 C49,22.406 49.226,22.35 49.184,22.309 L35.252,8.812 C35.211,8.772 35.282,9 35.225,9" id="Fill-5" fill="#FCFBFB"></path>
                    <path d="M47.737,73 L1.576,73 C0.707,73 0,72.293 0,71.424 L0,9.531 C0,8.687 0.686,8 1.531,8 L35.225,8 C35.413,8 35.591,8.072 35.726,8.205 L49.784,21.951 C49.921,22.085 50,22.272 50,22.465 L50,70.737 C50,71.985 48.985,73 47.737,73 L47.737,73 Z M1.531,9 C1.238,9 1,9.238 1,9.531 L1,71.424 C1,71.741 1.259,72 1.576,72 L47.737,72 C48.434,72 49,71.433 49,70.737 L49,22.583 L35.109,9 L1.531,9 L1.531,9 Z" id="Fill-6" fill="#333841"></path>
                    <path d="M49,23 L36.902,23 C35.581,23 34,21.419 34,20.098 L34,9" id="Fill-7" fill="#FCFBFB"></path>
                    <path d="M49,23 L36.902,23 C35.302,23 34,21.698 34,20.098 L34,9 C34,8.724 34.224,8.5 34.5,8.5 C34.776,8.5 35,8.724 35,9 L35,20.098 C35,21.146 35.854,22 36.902,22 L49,22 C49.276,22 49.5,22.224 49.5,22.5 C49.5,22.776 49.276,23 49,23" id="Fill-8" fill="#333841"></path>
                    <path d="M30,29 L43,29 L43,41 L30,41 L30,29 Z" id="Fill-9" fill="#2873E8"></path>
                    <path d="M8,26 L24,26 L24,27 L8,27 L8,26 Z" id="Fill-10" fill="#2873E8"></path>
                    <path d="M8,33 L24,33 L24,34 L8,34 L8,33 Z" id="Fill-11" fill="#2873E8"></path>
                    <path d="M8,40 L24,40 L24,41 L8,41 L8,40 Z" id="Fill-12" fill="#2873E8"></path>
                    <path d="M8,47 L43,47 L43,48 L8,48 L8,47 Z" id="Fill-13" fill="#2873E8"></path>
                    <path d="M8,55 L43,55 L43,56 L8,56 L8,55 Z" id="Fill-14" fill="#2873E8"></path>
                    <path d="M8,62 L43,62 L43,63 L8,63 L8,62 Z" id="Fill-15" fill="#2873E8"></path>
                </g>
            </g>
        </g>
    </g>
</svg>